<?xml version="1.0" standalone="no"?>
<!DOCTYPE svg PUBLIC "-//W3C//DTD SVG 20010904//EN"
 "http://www.w3.org/TR/2001/REC-SVG-20010904/DTD/svg10.dtd">
<svg version="1.0" xmlns="http://www.w3.org/2000/svg"
 width="418.000000pt" height="418.000000pt" viewBox="0 0 418.000000 418.000000"
 preserveAspectRatio="xMidYMid meet">
<metadata>
Created by potrace 1.14, written by Peter Selinger 2001-2017
</metadata>
<g transform="translate(0.000000,418.000000) scale(0.100000,-0.100000)"
fill="#000000" stroke="none">
<path d="M2021 4176 c2 -2 58 -6 124 -9 79 -3 101 -2 65 3 -57 8 -197 13 -189
6z"/>
<path d="M2866 4171 c-19 -7 -19 -8 2 -13 15 -4 22 -2 22 8 0 8 -1 14 -2 13
-2 0 -12 -4 -22 -8z"/>
<path d="M2900 4165 c0 -8 7 -15 15 -15 8 0 15 7 15 15 0 8 -7 15 -15 15 -8 0
-15 -7 -15 -15z"/>
<path d="M3345 4170 c-3 -5 -1 -10 4 -10 6 0 11 5 11 10 0 6 -2 10 -4 10 -3 0
-8 -4 -11 -10z"/>
<path d="M2308 4153 c12 -2 32 -2 45 0 12 2 2 4 -23 4 -25 0 -35 -2 -22 -4z"/>
<path d="M2403 4143 c15 -2 37 -2 50 0 12 2 0 4 -28 4 -27 0 -38 -2 -22 -4z"/>
<path d="M2513 4133 c9 -2 23 -2 30 0 6 3 -1 5 -18 5 -16 0 -22 -2 -12 -5z"/>
<path d="M2580 4130 c24 -8 127 -14 119 -6 -2 2 -35 6 -74 9 -43 3 -60 2 -45
-3z"/>
<path d="M2733 4113 c9 -2 23 -2 30 0 6 3 -1 5 -18 5 -16 0 -22 -2 -12 -5z"/>
<path d="M2800 4112 c8 -5 107 -17 220 -26 113 -9 227 -19 254 -22 30 -4 46
-3 43 3 -4 6 -46 13 -94 16 -164 11 -368 27 -403 32 -23 4 -30 2 -20 -3z"/>
<path d="M3353 4083 c9 -2 23 -2 30 0 6 3 -1 5 -18 5 -16 0 -22 -2 -12 -5z"/>
<path d="M3445 4055 c23 -8 85 -10 85 -3 0 4 -21 8 -47 7 -27 0 -43 -2 -38 -4z"/>
<path d="M2105 3974 c-11 -3 -60 -14 -110 -25 -120 -26 -169 -45 -236 -90 -82
-56 -142 -118 -173 -181 -32 -65 -52 -197 -60 -386 -4 -113 -3 -124 15 -135
10 -6 19 -18 19 -25 0 -8 7 -26 14 -40 41 -75 71 -174 61 -200 -8 -21 44 -177
67 -202 9 -10 20 -31 24 -47 4 -15 10 -32 13 -38 4 -5 15 -37 25 -70 38 -124
57 -168 111 -256 30 -49 55 -92 55 -95 0 -2 -18 -20 -40 -40 -66 -60 -104
-199 -62 -230 13 -10 70 -13 239 -14 136 0 231 -4 246 -11 43 -20 48 -41 49
-213 0 -118 2 -148 8 -113 5 27 12 52 16 55 9 9 -6 -166 -16 -194 -11 -28 -10
-244 1 -244 4 0 31 5 59 11 l50 11 0 73 c0 41 3 76 8 78 4 3 5 -30 3 -73 -3
-88 -10 -80 82 -95 l37 -6 -1 143 c-1 79 -4 133 -6 120 -5 -23 -22 -31 -24 -9
-3 36 -18 -79 -18 -145 -1 -47 -6 -80 -13 -84 -18 -11 8 435 27 454 3 3 5 -24
5 -59 l1 -64 15 45 c8 25 19 54 24 65 5 11 12 44 15 73 4 28 11 50 15 47 9 -6
43 48 52 82 10 37 -18 16 -54 -42 -38 -61 -70 -88 -65 -55 2 11 6 22 9 25 3 4
0 28 -7 55 -7 27 -12 50 -11 52 0 2 -4 -1 -11 -7 -6 -5 -15 -41 -18 -79 -3
-38 -10 -76 -14 -85 -5 -9 -6 -22 -4 -29 7 -20 -17 -71 -31 -66 -6 2 -20 20
-31 40 -15 28 -16 37 -6 44 10 6 11 12 2 26 -7 13 -10 14 -11 5 0 -8 -3 -12
-6 -8 -3 3 6 31 21 62 31 67 27 87 -6 23 -12 -23 -24 -38 -26 -31 -3 7 8 34
24 60 27 47 37 83 23 83 -8 0 -34 -52 -31 -63 1 -5 -3 -6 -9 -2 -5 3 -13 -1
-16 -9 -6 -17 -24 -22 -24 -7 0 4 16 29 35 55 20 25 33 46 29 46 -4 0 5 11 19
24 17 16 24 31 20 44 -3 15 7 31 41 62 36 34 44 46 36 60 -5 9 -7 20 -4 22 2
3 0 18 -7 34 -15 39 -14 147 2 172 16 25 5 40 -16 22 -12 -10 -16 -9 -21 4 -9
25 -22 19 -26 -11 -2 -16 -7 -26 -13 -23 -5 3 -9 15 -7 27 2 14 -4 24 -18 28
-12 4 -17 11 -13 18 5 8 2 8 -9 0 -17 -14 -29 -8 -22 12 3 7 -3 15 -13 19 -15
6 -15 8 -3 17 13 8 12 11 -4 24 -23 17 -15 41 19 57 15 7 24 17 21 25 -3 8 1
16 9 19 8 4 15 11 15 18 1 22 35 83 45 79 6 -2 16 11 23 29 6 17 14 29 18 26
12 -12 42 31 49 70 5 30 3 42 -8 49 -7 4 -16 17 -19 28 -3 11 -9 28 -13 38 -5
13 -2 17 15 17 29 0 50 -23 50 -54 0 -14 5 -26 11 -26 19 0 37 -26 44 -62 6
-31 -5 -81 -32 -148 -3 -8 -7 -28 -9 -45 -3 -25 -2 -27 7 -12 6 9 15 14 21 11
6 -4 8 -3 4 4 -12 19 11 61 31 56 21 -6 43 16 61 61 12 30 12 30 -6 9 -22 -26
-62 -48 -62 -35 0 5 7 16 15 25 8 8 15 21 15 30 0 8 8 21 18 28 35 25 54 70
43 101 -6 15 -15 27 -21 27 -13 0 -13 26 2 53 11 21 12 20 29 -18 13 -32 18
-37 24 -22 4 9 4 39 0 65 -7 42 -9 44 -16 22 l-9 -25 4 25 c2 14 14 52 27 85
18 48 23 81 23 165 1 149 -8 218 -30 235 -11 7 -20 9 -22 4 -6 -15 -22 -10
-22 6 0 8 -5 15 -11 15 -7 0 -8 14 -4 40 8 46 -9 73 -75 121 -22 16 -40 34
-40 40 0 28 -73 106 -116 124 -31 13 -44 24 -44 38 0 16 -2 17 -15 7 -13 -10
-30 -8 -98 15 -45 15 -96 33 -113 41 -34 15 -127 26 -159 18z m309 -102 c2 -4
-6 -8 -20 -8 -13 0 -24 4 -24 8 0 4 9 8 19 8 11 0 22 -4 25 -8z m-332 -244
c-9 -9 -15 -9 -24 0 -9 9 -7 12 12 12 19 0 21 -3 12 -12z m638 -69 c0 -21 -15
-25 -26 -7 -5 7 -3 8 6 3 9 -6 10 -2 5 15 -5 15 -4 20 4 16 6 -4 11 -16 11
-27z m87 -101 c-3 -7 -5 -2 -5 12 0 14 2 19 5 13 2 -7 2 -19 0 -25z m-272
-448 c43 -21 31 -25 -37 -14 -23 4 -38 12 -38 20 0 19 28 17 75 -6z m-327
-383 c12 -11 22 -26 22 -34 0 -7 3 -13 8 -13 4 0 20 -10 36 -23 22 -18 27 -28
21 -46 -6 -19 -11 -21 -38 -15 -18 3 -37 11 -44 16 -6 5 -14 5 -17 0 -10 -16
-61 -7 -64 11 -2 10 3 17 13 17 14 0 15 2 2 14 -17 17 -13 86 6 98 13 8 23 3
55 -25z m262 -277 c0 -5 -5 -10 -11 -10 -5 0 -7 5 -4 10 3 6 8 10 11 10 2 0 4
-4 4 -10z m-66 -424 c-20 -31 -41 -56 -46 -56 -10 0 -6 8 26 55 31 45 49 66
53 61 3 -2 -12 -29 -33 -60z m41 -393 c-3 -19 -9 -33 -12 -30 -3 3 -2 25 2 49
5 24 10 37 12 30 3 -7 2 -29 -2 -49z"/>
<path d="M2515 3880 c3 -5 8 -10 11 -10 2 0 4 5 4 10 0 6 -5 10 -11 10 -5 0
-7 -4 -4 -10z"/>
<path d="M1102 2815 c0 -16 2 -22 5 -12 2 9 2 23 0 30 -3 6 -5 -1 -5 -18z"/>
<path d="M2611 2494 c0 -11 3 -14 6 -6 3 7 2 16 -1 19 -3 4 -6 -2 -5 -13z"/>
<path d="M2591 2453 c0 -12 -4 -30 -7 -40 -5 -17 -5 -17 6 0 6 10 9 28 7 40
-4 22 -4 22 -6 0z"/>
<path d="M1073 2225 c0 -33 2 -45 4 -27 2 18 2 45 0 60 -2 15 -4 0 -4 -33z"/>
<path d="M2580 2238 c1 -7 7 -35 14 -61 12 -48 12 -48 24 -22 18 39 15 61 -13
79 -18 12 -25 13 -25 4z"/>
<path d="M2530 2035 c-7 -8 -8 -15 -2 -15 5 0 15 7 22 15 7 8 8 15 2 15 -5 0
-15 -7 -22 -15z"/>
<path d="M2676 2034 c-5 -14 -4 -15 9 -4 17 14 19 20 6 20 -5 0 -12 -7 -15
-16z"/>
<path d="M2576 2026 c6 -15 4 -17 -6 -11 -9 6 -11 4 -5 -4 5 -9 10 -10 18 -2
8 8 7 14 -2 24 -10 10 -11 8 -5 -7z"/>
<path d="M2714 2032 c3 -5 0 -13 -6 -15 -9 -4 -10 -6 -1 -6 17 -1 25 16 12 25
-7 4 -9 3 -5 -4z"/>
<path d="M2717 1993 c-4 -3 -7 -11 -7 -17 0 -6 5 -4 11 4 8 11 9 8 4 -14 -15
-69 -17 -92 -6 -74 27 40 24 128 -2 101z"/>
<path d="M2515 1955 c-15 -47 -15 -49 5 -25 11 14 20 28 20 33 0 13 -21 7 -25
-8z"/>
<path d="M1053 1890 c0 -36 2 -50 4 -32 2 17 2 47 0 65 -2 17 -4 3 -4 -33z"/>
<path d="M1786 1915 c-3 -8 -1 -15 4 -15 6 0 10 7 10 15 0 8 -2 15 -4 15 -2 0
-6 -7 -10 -15z"/>
<path d="M2518 1903 c-27 -32 -29 -42 -9 -40 11 0 18 4 15 8 -2 4 3 12 11 19
16 14 20 30 7 30 -5 0 -16 -8 -24 -17z"/>
<path d="M1528 1823 c7 -3 16 -2 19 1 4 3 -2 6 -13 5 -11 0 -14 -3 -6 -6z"/>
<path d="M2507 1813 c-4 -3 -7 -11 -7 -17 0 -6 5 -5 12 2 6 6 9 14 7 17 -3 3
-9 2 -12 -2z"/>
<path d="M1513 1803 c9 -2 23 -2 30 0 6 3 -1 5 -18 5 -16 0 -22 -2 -12 -5z"/>
<path d="M1040 1718 c-3 -47 -2 -84 3 -81 4 2 7 17 7 32 0 15 5 32 12 39 9 9
9 12 1 12 -7 0 -13 19 -15 43 -2 26 -5 10 -8 -45z"/>
<path d="M1478 1772 c-36 -3 -55 -22 -23 -22 14 0 14 -3 1 -22 -8 -13 -18 -61
-22 -108 l-8 -85 -8 52 c-4 29 -4 80 0 113 9 59 8 60 -15 60 -14 0 -21 -4 -18
-10 4 -6 11 -8 16 -5 5 4 9 -4 9 -17 0 -17 -3 -19 -9 -9 -15 23 -39 5 -47 -35
-4 -20 -5 -82 -2 -138 4 -84 3 -93 -5 -56 l-10 45 -7 -38 c-7 -39 -20 -62 -20
-35 0 16 -28 33 -38 23 -3 -2 0 -30 6 -62 26 -132 43 -245 39 -249 -3 -3 -8
12 -11 33 -4 21 -13 65 -21 98 -8 33 -24 113 -36 177 -12 65 -26 115 -31 112
-4 -3 -8 0 -8 5 0 6 -4 11 -10 11 -5 0 -10 -11 -10 -25 0 -14 4 -24 9 -22 11
2 13 -7 5 -26 -5 -14 32 -252 43 -271 4 -8 2 -8 -5 -1 -6 6 -18 48 -27 94 -24
119 -47 178 -67 175 -10 -1 -21 9 -28 26 -7 18 -19 28 -30 27 -15 -1 -17 -5
-8 -22 9 -16 8 -18 -3 -7 -19 17 -26 15 -32 -10 -6 -23 9 -51 23 -43 10 6 20
-7 25 -36 3 -12 11 -29 18 -38 8 -9 22 -32 31 -51 9 -19 11 -27 4 -17 -23 34
-46 58 -55 58 -4 0 -7 7 -5 16 2 8 -1 12 -7 8 -16 -9 -13 -31 5 -49 8 -9 12
-21 8 -27 -5 -8 -3 -9 6 -4 10 6 12 4 6 -10 -5 -14 -4 -16 7 -6 20 16 16 -15
-7 -58 -10 -19 -12 -30 -5 -26 8 5 10 4 5 -3 -4 -7 -4 -17 -1 -23 4 -6 16 2
29 20 13 17 26 28 29 24 4 -3 -4 -20 -17 -37 -30 -40 -49 -100 -41 -127 4 -13
1 -25 -8 -32 -9 -7 -18 -25 -20 -42 -3 -16 -4 2 -4 40 1 84 -9 109 -30 74 -13
-23 -13 -22 -8 16 3 22 1 47 -5 55 -7 12 -10 8 -10 -15 0 -23 -3 -27 -10 -15
-7 11 -10 4 -9 -25 0 -31 2 -36 9 -20 7 15 9 10 9 -23 1 -23 8 -54 17 -67 14
-22 14 -26 1 -40 -8 -8 -20 -36 -26 -62 -6 -27 -18 -70 -25 -98 -14 -48 -15
-49 -15 -15 -1 19 4 51 10 70 5 19 12 45 15 57 4 21 2 22 -21 11 -15 -7 -24
-17 -21 -25 3 -7 1 -13 -4 -13 -5 0 -11 -15 -13 -32 -3 -19 -4 -11 -4 20 1 77
-19 88 -28 15 -7 -54 -9 -56 -19 -32 -15 34 -37 26 -30 -11 4 -15 1 -36 -5
-47 -11 -16 -11 -16 -6 4 7 27 -4 73 -17 73 -6 0 -8 -9 -5 -20 3 -11 1 -18 -4
-14 -5 3 -9 13 -9 22 0 11 -3 13 -10 6 -7 -7 -6 -38 5 -99 8 -49 13 -90 11
-93 -3 -2 -7 6 -10 19 -24 120 -24 120 -25 37 -1 -77 -1 -78 24 -78 14 0 25
-5 25 -11 0 -5 -4 -8 -8 -5 -4 2 -8 -4 -9 -14 -1 -11 2 -22 8 -25 5 -4 9 0 9
7 0 8 7 23 16 34 15 19 15 18 11 -3 -6 -29 15 -36 30 -9 12 21 12 21 13 -4 0
-14 5 -32 10 -40 7 -12 12 -7 24 20 19 45 19 42 -3 -65 l-20 -90 0 57 c-1 31
-6 60 -13 64 -6 4 -8 3 -4 -4 3 -5 2 -12 -4 -14 -6 -2 -15 -23 -20 -48 -9 -42
-9 -41 -6 23 5 88 -15 86 -30 -4 l-12 -64 -1 65 c-1 75 -19 72 -29 -7 l-7 -48
-6 45 -5 45 -9 -44 c-7 -40 -9 -42 -22 -26 -7 11 -13 13 -13 7 0 -7 -12 -12
-27 -13 -18 0 -4 -7 35 -16 52 -14 62 -20 61 -37 0 -19 -1 -19 -8 -3 -9 24
-23 21 -38 -6 -7 -12 -12 -16 -13 -8 0 8 -6 11 -17 7 -9 -4 -19 -2 -23 4 -5 8
-12 7 -23 -4 -10 -11 -18 -13 -22 -5 -8 12 -45 -17 -45 -37 0 -7 -8 -14 -18
-17 -19 -4 -5 -12 78 -41 25 -9 57 -26 72 -38 26 -21 27 -26 18 -63 -16 -68
-32 -234 -26 -260 l6 -25 355 0 355 0 1 48 c0 26 7 63 15 82 9 21 12 25 9 10
-3 -14 -8 -51 -11 -82 l-7 -58 71 1 c69 1 71 2 75 28 l4 26 2 -27 c1 -34 28
-38 34 -6 l4 23 2 -23 c1 -18 6 -23 24 -20 20 3 22 10 28 83 l5 80 2 -82 c2
-74 4 -83 21 -83 25 0 31 18 32 98 0 37 4 87 8 112 l8 45 1 -55 c0 -30 -3 -88
-7 -128 -7 -70 -6 -72 15 -72 28 0 31 14 40 175 3 72 9 132 11 135 3 3 3 -66
1 -152 l-6 -158 24 0 c23 0 24 3 25 68 1 37 5 119 9 182 7 104 8 97 6 -67 l-3
-183 24 0 c18 0 23 6 24 28 0 15 7 45 14 67 15 42 15 32 -1 -57 -6 -36 -5 -38
20 -38 14 0 26 6 26 13 0 51 29 251 36 244 5 -5 -14 -212 -22 -239 -4 -14 0
-17 20 -16 28 3 32 12 42 110 4 37 8 78 9 90 1 13 3 37 5 53 1 17 4 24 7 18 2
-7 17 -13 32 -13 26 0 27 3 27 41 -1 40 -2 41 -60 66 -32 13 -65 22 -72 19 -8
-3 -14 -1 -14 4 0 6 -11 10 -25 10 -24 0 -24 0 -28 -117 l-3 -118 -2 122 c-2
140 11 124 -116 143 -38 6 -74 14 -80 18 -6 3 -19 5 -29 4 -21 -4 -94 36 -102
56 -4 12 -3 13 10 2 8 -7 22 -10 30 -6 10 3 15 -1 16 -12 0 -11 2 -12 6 -4 4
10 15 7 46 -11 23 -13 48 -22 55 -20 6 3 12 -1 12 -7 0 -7 17 -11 48 -9 26 1
53 -1 60 -5 7 -4 12 -3 12 3 0 6 7 8 15 5 8 -4 15 -1 15 5 0 14 57 15 65 1 3
-5 28 -10 54 -10 35 0 53 5 66 20 17 19 17 20 -1 27 -11 4 -51 26 -89 49 -46
28 -91 47 -130 53 -266 48 -295 56 -295 88 0 13 -6 23 -14 23 -7 0 -19 7 -26
15 -7 8 -9 15 -5 15 13 0 70 -35 78 -47 4 -7 23 -13 40 -13 18 0 39 -6 46 -12
8 -8 43 -13 99 -14 114 0 335 -51 358 -82 11 -14 16 -15 33 -5 13 8 22 9 26 3
8 -13 45 -13 45 0 0 6 -5 10 -12 10 -19 0 -47 31 -41 46 3 8 -1 14 -11 14 -22
0 -137 60 -166 87 -14 13 -30 23 -37 23 -7 0 -13 4 -13 9 0 4 -42 25 -92 45
-51 21 -101 42 -110 47 -10 5 -27 9 -38 9 -31 0 -100 31 -100 45 0 8 8 11 20
8 11 -3 20 0 20 6 0 6 7 11 15 11 8 0 15 -5 15 -12 0 -6 3 -9 6 -5 3 3 31 -5
61 -19 31 -13 62 -24 69 -24 7 0 31 -9 53 -21 22 -11 63 -22 91 -25 48 -4 50
-3 34 13 -15 16 -15 17 7 25 34 13 52 3 39 -22 -10 -18 -8 -20 20 -20 32 0 41
16 13 23 -10 3 -1 5 20 6 34 1 37 -1 37 -25 0 -23 -3 -25 -24 -20 -14 3 -28 2
-31 -4 -3 -5 -20 -10 -36 -10 -17 0 -28 4 -24 10 3 6 -1 7 -9 4 -32 -12 -9
-40 43 -50 17 -4 34 -11 37 -15 3 -5 19 -9 35 -9 17 0 49 -9 72 -20 28 -14 51
-18 70 -14 20 4 34 1 47 -11 16 -15 22 -15 35 -5 11 9 15 9 15 1 0 -6 -7 -14
-15 -17 -28 -11 16 -34 55 -29 19 2 27 2 17 -1 -25 -8 -3 -34 29 -34 25 0 64
-35 64 -57 0 -8 12 -13 30 -13 17 0 30 5 30 10 0 6 -5 10 -12 10 -9 0 -9 3 0
12 9 9 15 9 24 0 21 -21 38 -14 38 16 0 20 -7 33 -24 41 -13 7 -41 34 -62 59
-22 25 -55 62 -75 82 -53 51 -127 154 -131 181 -2 18 -9 24 -28 23 -13 -1 -33
7 -44 17 -11 11 -28 19 -37 19 -10 0 -21 5 -24 10 -3 6 -14 10 -24 10 -9 0
-26 7 -37 15 -14 11 -16 17 -6 23 9 6 6 12 -13 22 -14 7 -25 22 -25 32 0 10
-9 23 -20 30 -11 7 -20 18 -20 25 0 7 -4 13 -10 13 -5 0 -10 7 -10 15 0 8 -4
15 -10 15 -5 0 -10 5 -10 10 0 6 -8 18 -18 28 -22 22 -82 19 -82 -4 0 -8 -5
-14 -10 -14 -9 0 5 -35 20 -50 3 -3 11 -17 19 -32 8 -16 20 -28 28 -28 7 0 13
-5 13 -11 0 -7 -10 -9 -27 -5 -21 5 -24 4 -13 -3 21 -15 1 -45 -35 -51 -16 -3
-30 -11 -33 -18 -2 -8 3 -10 15 -6 15 5 15 4 3 -5 -25 -18 -68 -13 -120 14
-62 31 -80 32 -52 2 12 -13 22 -27 22 -31 0 -4 -24 -6 -52 -5 -29 2 -59 0 -65
-4 -8 -5 -13 -4 -13 2 0 6 -11 11 -24 11 -13 0 -34 8 -47 19 -13 10 -29 16
-36 14 -21 -7 -24 16 -3 27 18 9 20 21 20 95 0 80 -9 110 -27 83 -4 -7 -11
-47 -14 -88 l-6 -75 -2 80 c-1 44 -4 93 -6 109 -2 16 0 36 4 45 5 9 11 43 15
76 6 56 5 58 -9 35 -36 -63 -39 -76 -39 -230 0 -85 -1 -135 -3 -110 -1 25 -6
79 -9 120 -6 74 -6 74 -21 46 -8 -16 -19 -70 -23 -120 -5 -61 -8 -75 -9 -41 0
28 -5 65 -10 83 -6 18 -6 30 -2 28 8 -5 50 145 52 185 1 21 2 22 7 4 3 -14 11
0 23 45 23 78 24 105 4 70 -14 -25 -14 -24 -8 10 3 19 10 44 14 55 7 18 8 18
8 -5 l1 -25 13 25 c7 14 21 37 30 51 9 14 20 53 23 87 7 59 6 61 -16 55 -16
-4 -21 -11 -17 -28 2 -13 -2 -34 -9 -46 -13 -24 -13 -24 -14 9 0 18 7 46 14
61 15 27 14 28 -12 27 -15 0 -44 -2 -64 -4z m12 -89 c-11 -17 -11 -17 -6 0 3
10 7 28 7 40 2 22 2 22 6 0 2 -12 -1 -30 -7 -40z m-33 -35 c-3 -8 -6 -5 -6 6
-1 11 2 17 5 13 3 -3 4 -12 1 -19z m80 -50 c-3 -7 -5 -2 -5 12 0 14 2 19 5 13
2 -7 2 -19 0 -25z m-92 -186 c-32 -141 -33 -144 -34 -111 -1 38 19 139 35 176
8 17 14 42 15 55 0 12 3 17 6 10 3 -7 -7 -65 -22 -130z m-315 84 c0 -6 -7 -1
-15 10 -8 10 -15 23 -15 28 0 6 7 1 15 -10 8 -10 15 -23 15 -28z m367 -73 c-3
-10 -5 -2 -5 17 0 19 2 27 5 18 2 -10 2 -26 0 -35z m-143 -284 l5 -94 -14 70
c-15 78 -19 190 -5 144 4 -15 10 -69 14 -120z m-179 42 c-28 -55 -32 -86 -11
-94 10 -4 20 8 32 39 9 24 19 42 22 40 2 -3 -3 -24 -12 -47 -15 -38 -16 -44
-2 -58 14 -14 17 -13 31 4 13 19 14 18 15 -17 0 -20 -4 -40 -10 -43 -5 -3 -10
0 -10 8 0 18 -27 30 -36 16 -3 -6 -12 -8 -19 -5 -7 2 -18 -1 -25 -7 -9 -8 -8
-5 1 10 9 16 16 19 21 10 5 -8 8 -7 8 4 0 9 -7 19 -15 23 -17 6 -41 -42 -55
-109 l-8 -40 -1 35 c-2 81 61 280 89 280 5 0 -2 -22 -15 -49z m155 -63 c0 -13
-5 -30 -10 -38 -7 -11 -10 -5 -10 23 0 20 5 37 10 37 6 0 10 -10 10 -22z
m-260 -165 c-11 -17 -11 -17 -6 0 3 10 6 24 7 30 0 9 2 9 5 0 3 -7 0 -20 -6
-30z m447 5 c-3 -8 -6 -5 -6 6 -1 11 2 17 5 13 3 -3 4 -12 1 -19z m780 -10
c-3 -8 -6 -5 -6 6 -1 11 2 17 5 13 3 -3 4 -12 1 -19z m-727 -18 c0 -5 7 -10
16 -10 9 0 12 5 8 12 -4 7 -3 8 4 4 20 -12 13 -26 -12 -26 -13 0 -26 7 -30 15
-3 8 -1 15 4 15 6 0 10 -4 10 -10z m-530 -85 l-21 -60 5 46 c3 26 11 59 18 75
21 46 20 4 -2 -61z m610 54 c0 -4 -7 -6 -15 -3 -8 4 -15 10 -15 15 0 4 7 6 15
3 8 -4 15 -10 15 -15z m-543 -31 c-3 -7 -5 -2 -5 12 0 14 2 19 5 13 2 -7 2
-19 0 -25z m463 0 c-11 -12 -21 -28 -21 -35 -1 -7 -2 -18 -3 -25 0 -7 -16 -20
-33 -31 -30 -17 -33 -17 -33 -2 0 9 10 26 23 38 12 13 30 35 40 50 9 15 24 27
33 27 12 0 10 -5 -6 -22z m-653 -20 c-3 -8 -6 -5 -6 6 -1 11 2 17 5 13 3 -3 4
-12 1 -19z m168 -78 c-8 -39 -13 -53 -14 -35 -1 30 17 110 24 103 1 -1 -3 -32
-10 -68z m1179 64 c9 -3 16 -14 16 -24 0 -14 -7 -18 -30 -18 -21 1 -30 6 -30
18 0 28 14 36 44 24z m-467 -10 c-3 -3 -12 -4 -19 -1 -8 3 -5 6 6 6 11 1 17
-2 13 -5z m-890 -36 c-3 -7 -5 -2 -5 12 0 14 2 19 5 13 2 -7 2 -19 0 -25z
m873 18 c0 -3 -4 -8 -10 -11 -5 -3 -10 -1 -10 4 0 6 5 11 10 11 6 0 10 -2 10
-4z m36 -15 c-3 -5 13 -12 37 -16 23 -5 34 -10 24 -12 -27 -7 -92 17 -76 28
18 11 22 11 15 0z m-859 -43 c-3 -8 -6 -5 -6 6 -1 11 2 17 5 13 3 -3 4 -12 1
-19z m1218 12 c-3 -5 -13 -10 -21 -10 -8 0 -14 5 -14 10 0 6 9 10 21 10 11 0
17 -4 14 -10z m-1283 -32 c-8 -8 -9 -4 -5 13 4 13 8 18 11 10 2 -7 -1 -18 -6
-23z m245 0 c-3 -8 -6 -5 -6 6 -1 11 2 17 5 13 3 -3 4 -12 1 -19z m1198 -8 c3
-5 1 -10 -4 -10 -6 0 -11 5 -11 10 0 6 2 10 4 10 3 0 8 -4 11 -10z m-982 -60
c-9 -22 -23 -40 -30 -40 -8 0 -17 -9 -20 -20 -3 -11 -10 -20 -15 -20 -5 0 -7
-4 -4 -8 6 -10 -4 -24 -28 -38 -11 -6 -22 -17 -24 -25 -3 -11 -1 -11 8 1 10
13 11 13 7 0 -2 -8 -18 -25 -37 -37 -18 -13 -29 -23 -25 -23 12 0 -36 -40 -67
-56 -16 -8 -28 -21 -28 -29 0 -8 -7 -15 -16 -15 -8 0 -29 -13 -47 -30 -18 -16
-40 -30 -50 -30 -10 0 -20 -6 -23 -14 -3 -8 -20 -18 -37 -22 -48 -10 -127 -69
-127 -94 0 -5 -4 -10 -10 -10 -14 0 -12 25 6 92 23 81 72 134 170 182 96 47
245 143 339 219 39 31 71 57 72 57 1 0 -6 -18 -14 -40z m242 -20 c-1 -8 -10
-14 -19 -13 -13 1 -15 -4 -10 -15 3 -10 9 -27 11 -39 7 -32 -20 -30 -45 2 -24
30 -29 30 -56 8 -12 -10 -18 -14 -13 -9 4 5 -1 18 -10 28 -14 15 -14 21 -3 31
10 9 11 9 6 0 -4 -8 -1 -13 8 -13 8 0 21 -3 29 -6 10 -3 18 2 22 15 9 31 85
42 80 11z m930 -20 c3 -5 1 -10 -4 -10 -6 0 -11 5 -11 10 0 6 2 10 4 10 3 0 8
-4 11 -10z m-1545 -65 c0 -19 -4 -35 -10 -35 -11 0 -13 30 -4 54 10 25 14 19
14 -19z m561 -12 c13 -15 12 -15 -8 -4 -24 12 -29 21 -14 21 5 0 15 -7 22 -17z
m39 -113 c0 -5 -2 -10 -4 -10 -3 0 -8 5 -11 10 -3 6 -1 10 4 10 6 0 11 -4 11
-10z m-144 -65 c4 -8 11 -12 17 -8 6 3 7 1 3 -6 -6 -8 -12 -9 -20 -2 -7 6 -16
8 -19 4 -4 -3 3 -11 16 -18 15 -8 24 -8 29 -1 5 8 8 7 8 -1 0 -6 9 -9 20 -6
15 4 20 1 19 -13 0 -11 -3 -14 -6 -6 -8 19 -23 14 -23 -8 0 -11 -4 -20 -10
-20 -5 0 -6 7 -3 17 4 11 3 14 -5 9 -7 -4 -12 -13 -12 -21 0 -19 -60 -64 -77
-58 -8 3 -13 -3 -13 -17 0 -11 -4 -18 -10 -15 -5 3 -10 15 -10 26 0 10 -4 19
-10 19 -5 0 -7 -6 -4 -13 3 -8 -2 -20 -11 -27 -13 -11 -15 -9 -15 14 0 14 -4
27 -10 27 -20 3 -25 5 -45 16 -19 11 -19 12 8 22 16 6 32 11 37 11 5 0 13 7
18 16 5 9 13 16 18 16 29 3 45 12 40 25 -3 8 -1 11 4 8 6 -3 10 0 10 7 0 9 3
9 10 -2 9 -13 14 -7 11 13 -2 14 30 7 35 -8z m131 -77 c-3 -8 -6 -5 -6 6 -1
11 2 17 5 13 3 -3 4 -12 1 -19z m480 0 c-3 -8 -6 -5 -6 6 -1 11 2 17 5 13 3
-3 4 -12 1 -19z m-735 -130 c-7 -7 -12 -8 -12 -2 0 14 12 26 19 19 2 -3 -1
-11 -7 -17z m305 -80 c-2 -13 -4 -3 -4 22 0 25 2 35 4 23 2 -13 2 -33 0 -45z
m-60 -35 c-2 -16 -4 -5 -4 22 0 28 2 40 4 28 2 -13 2 -35 0 -50z"/>
<path d="M1360 310 c0 -5 5 -10 11 -10 5 0 7 5 4 10 -3 6 -8 10 -11 10 -2 0
-4 -4 -4 -10z"/>
<path d="M1370 264 c0 -8 5 -12 10 -9 6 3 10 10 10 16 0 5 -4 9 -10 9 -5 0
-10 -7 -10 -16z"/>
<path d="M1280 1703 c-37 -17 -44 -19 -75 -22 -12 -1 -16 -4 -9 -9 6 -4 14
-14 17 -22 3 -9 6 -6 7 10 1 21 3 19 15 -14 13 -37 29 -56 49 -56 4 0 5 7 2
16 -3 9 -6 20 -6 25 0 5 -7 9 -15 9 -12 0 -13 4 -6 19 6 10 7 21 4 25 -3 3 8
9 25 12 18 4 32 10 32 15 0 11 2 11 -40 -8z"/>
<path d="M1962 1708 c-18 -9 -22 -18 -20 -41 4 -36 26 -52 61 -43 38 9 48 53
17 78 -25 21 -27 21 -58 6z"/>
<path d="M1071 1684 c0 -11 3 -14 6 -6 3 7 2 16 -1 19 -3 4 -6 -2 -5 -13z"/>
<path d="M2470 1680 c0 -5 5 -10 11 -10 5 0 7 5 4 10 -3 6 -8 10 -11 10 -2 0
-4 -4 -4 -10z"/>
<path d="M3403 1679 c-6 -6 -9 -18 -6 -26 3 -7 2 -13 -3 -12 -23 4 -34 -3 -53
-35 -46 -74 -6 -52 71 39 19 23 10 53 -9 34z"/>
<path d="M2741 1604 c0 -11 3 -14 6 -6 3 7 2 16 -1 19 -3 4 -6 -2 -5 -13z"/>
<path d="M1600 1578 c0 -7 -3 -31 -6 -53 -4 -26 -2 -35 4 -27 9 14 15 92 7 92
-3 0 -5 -6 -5 -12z"/>
<path d="M1965 1569 c-4 -6 -5 -12 -2 -15 2 -3 7 2 10 11 7 17 1 20 -8 4z"/>
<path d="M2766 1538 c-3 -12 -8 -99 -11 -193 -11 -281 -23 -353 -21 -128 0
106 -2 183 -6 172 -4 -11 -12 -18 -17 -15 -9 6 -17 -45 -27 -189 -3 -49 -8
-92 -10 -94 -8 -8 -54 31 -48 40 4 7 -1 7 -15 0 -14 -8 -21 -8 -21 -1 0 7 -6
8 -17 2 -10 -5 -33 -7 -51 -5 -44 7 -144 -6 -137 -18 4 -5 2 -9 -4 -9 -5 0
-12 6 -14 13 -3 6 -6 -8 -6 -32 l-1 -44 69 7 c39 3 81 10 95 16 25 9 47 5 119
-22 63 -24 17 -58 -66 -48 -32 3 -60 2 -63 -2 -3 -5 -11 -5 -17 -1 -7 4 -1 -7
13 -24 14 -18 33 -44 44 -58 10 -15 44 -43 75 -62 31 -20 58 -39 61 -43 3 -3
21 -18 41 -33 l37 -28 7 63 c10 93 34 270 51 378 24 146 29 254 14 289 -7 17
-16 29 -20 26 -5 -3 -8 -62 -8 -131 0 -69 -3 -128 -6 -131 -3 -4 -6 64 -6 149
0 124 -3 158 -15 168 -12 10 -15 8 -19 -12z m21 -430 c-3 -7 -5 -2 -5 12 0 14
2 19 5 13 2 -7 2 -19 0 -25z m-70 -140 c-3 -8 -6 -5 -6 6 -1 11 2 17 5 13 3
-3 4 -12 1 -19z m40 -10 c-3 -7 -5 -2 -5 12 0 14 2 19 5 13 2 -7 2 -19 0 -25z"/>
<path d="M3321 1525 c-26 -30 -67 -132 -57 -142 5 -5 32 39 41 67 4 14 18 44
30 68 13 23 22 42 20 42 -1 0 -17 -16 -34 -35z"/>
<path d="M1020 1502 c0 -11 8 -18 19 -18 21 0 18 21 -5 30 -9 3 -14 -1 -14
-12z"/>
<path d="M3368 1483 c-19 -21 -54 -62 -76 -91 -22 -29 -43 -48 -46 -43 -4 5 0
11 6 14 7 2 9 8 5 13 -10 11 -28 -17 -22 -33 2 -7 0 -13 -5 -13 -8 0 -21 -28
-26 -59 -2 -8 -7 -17 -12 -20 -16 -11 -33 -74 -22 -85 5 -5 10 -20 10 -32 0
-12 6 -36 13 -54 l14 -32 16 34 c13 28 14 42 5 78 -6 25 -15 50 -20 57 -11 14
12 51 60 97 19 17 28 34 25 44 -5 11 -2 14 9 9 10 -3 25 5 39 21 l24 27 -26
-23 c-15 -13 -29 -20 -32 -15 -7 10 6 34 19 36 5 1 8 5 7 9 -2 4 10 17 25 30
23 21 58 68 49 68 -2 0 -19 -17 -39 -37z"/>
<path d="M2006 1494 c-3 -8 -10 -12 -16 -9 -5 3 -10 5 -11 3 -10 -63 -9 -92 2
-99 24 -14 38 11 38 67 0 57 -3 64 -13 38z"/>
<path d="M3526 1495 c-3 -9 -6 -22 -5 -28 0 -7 5 -1 10 12 5 13 8 26 5 28 -2
2 -6 -3 -10 -12z"/>
<path d="M1602 1450 c0 -19 2 -27 5 -17 2 9 2 25 0 35 -3 9 -5 1 -5 -18z"/>
<path d="M3488 1452 c-4 -12 -3 -35 1 -50 l8 -27 6 27 c4 14 3 37 -1 49 l-9
23 -5 -22z"/>
<path d="M3067 1432 c-9 -17 -20 -52 -23 -79 l-6 -48 21 25 c22 27 35 74 29
110 -3 20 -4 20 -21 -8z"/>
<path d="M3453 1410 c-9 -21 0 -96 12 -108 9 -9 14 66 6 98 -8 35 -8 35 -18
10z"/>
<path d="M2953 1397 c-13 -27 -39 -126 -48 -185 -6 -36 -4 -41 9 -36 19 7 19
12 6 -112 -5 -55 -12 -124 -15 -154 -16 -163 -16 -243 1 -261 23 -26 30 -17
33 37 2 72 11 66 11 -8 0 -55 4 -68 23 -86 13 -12 25 -22 28 -22 3 0 4 30 3
67 -2 65 -2 65 8 -20 10 -83 13 -90 52 -134 44 -48 66 -51 66 -10 0 18 2 19
10 7 8 -13 10 -12 10 3 0 9 5 17 10 17 6 0 10 6 10 14 0 8 12 17 28 21 15 4
21 10 15 12 -7 3 -13 11 -13 18 0 7 -7 16 -16 19 -11 4 -14 12 -9 24 10 23 6
101 -6 124 -5 10 -23 25 -40 34 -30 15 -31 15 -25 -8 3 -13 -6 1 -20 30 -18
38 -24 61 -19 82 6 29 49 89 100 140 24 24 28 50 14 75 -4 6 -9 23 -13 39 -6
24 -9 27 -17 15 -8 -10 -9 -2 -4 26 l6 40 -17 -35 c-9 -19 -23 -48 -31 -65 -8
-16 -19 -59 -24 -95 -12 -81 -28 -144 -36 -136 -7 7 18 226 29 248 7 14 0 113
-8 105 -3 -2 -13 -61 -39 -217 -8 -48 -13 -62 -14 -40 0 19 6 76 14 125 8 50
15 101 15 115 -1 24 -1 24 -15 6 -15 -20 -15 -20 -14 0 0 10 4 41 8 69 11 67
5 83 -23 53 -19 -21 -21 -38 -28 -228 -4 -113 -12 -241 -17 -285 -10 -99 -4
260 9 460 4 72 7 131 6 132 -2 2 -7 -7 -13 -20z m54 -529 c-3 -7 -5 -2 -5 12
0 14 2 19 5 13 2 -7 2 -19 0 -25z m144 -221 c0 -34 2 -38 10 -22 8 17 9 17 4
-5 -2 -14 -5 -43 -6 -65 -1 -34 -3 -30 -15 30 -16 86 -17 118 -4 110 6 -3 10
-25 11 -48z m-44 -99 c-2 -13 -4 -3 -4 22 0 25 2 35 4 23 2 -13 2 -33 0 -45z"/>
<path d="M2636 1358 c-14 -108 -13 -183 3 -195 9 -7 20 -13 24 -13 13 0 4 243
-10 247 -7 3 -14 -12 -17 -39z"/>
<path d="M2858 1340 c-3 -36 -18 -148 -32 -250 -43 -297 -48 -351 -35 -366 23
-28 39 -16 40 29 0 23 3 51 5 62 3 11 11 81 19 155 9 74 20 169 25 210 7 55 6
95 -4 150 l-13 75 -5 -65z m19 -102 c-3 -8 -6 -5 -6 6 -1 11 2 17 5 13 3 -3 4
-12 1 -19z"/>
<path d="M3389 1387 c-26 -20 -40 -83 -30 -139 0 -5 8 -8 16 -8 11 0 14 13 14
59 -1 32 4 68 10 80 13 24 12 25 -10 8z"/>
<path d="M3413 1377 c-17 -37 -16 -89 1 -113 14 -18 15 -18 20 6 3 14 2 50 -2
80 -7 53 -7 53 -19 27z"/>
<path d="M1730 1351 c0 -28 -12 -33 -33 -14 -18 17 -19 17 -28 0 -6 -9 -17
-17 -25 -17 -12 0 -13 -4 -4 -20 8 -15 17 -19 31 -15 15 5 17 3 12 -10 -4 -13
-1 -16 13 -13 10 2 24 -2 29 -9 6 -6 24 -15 40 -18 27 -6 28 -5 13 7 -15 13
-15 15 3 26 19 12 57 17 46 6 -7 -7 17 -34 29 -34 5 0 3 5 -3 11 -6 6 -9 18
-6 26 4 9 -2 16 -16 20 -11 3 -21 13 -21 22 0 17 -21 32 -62 45 -13 4 -18 0
-18 -13z"/>
<path d="M3321 1324 c-25 -32 -28 -79 -5 -88 25 -9 27 -8 21 20 -3 15 -1 41 4
57 12 41 6 44 -20 11z"/>
<path d="M997 1289 c4 -13 8 -18 11 -10 2 7 -1 18 -6 23 -8 8 -9 4 -5 -13z"/>
<path d="M3253 1268 c-19 -20 -20 -29 -12 -77 4 -29 10 -56 13 -58 2 -3 15 1
27 8 l23 12 -27 23 c-30 26 -35 44 -12 44 10 0 15 11 15 35 0 19 -1 35 -3 35
-2 0 -13 -10 -24 -22z"/>
<path d="M1084 1237 c3 -10 6 -24 6 -30 0 -8 4 -7 12 1 10 10 8 16 -6 30 -18
16 -19 16 -12 -1z"/>
<path d="M3410 1199 c-15 -55 -7 -60 14 -9 19 47 19 50 6 50 -5 0 -14 -18 -20
-41z"/>
<path d="M3081 1204 c0 -11 3 -14 6 -6 3 7 2 16 -1 19 -3 4 -6 -2 -5 -13z"/>
<path d="M1606 1179 c-9 -48 -7 -109 4 -109 6 0 10 30 10 70 0 76 -4 87 -14
39z"/>
<path d="M3374 1168 c-4 -13 -13 -32 -21 -43 -14 -19 -15 -19 -8 4 12 39 -12
15 -34 -34 -20 -45 -38 -62 -26 -25 12 39 -23 10 -53 -44 -24 -42 -28 -59 -23
-91 l6 -39 16 25 c9 13 19 42 22 63 3 22 10 43 15 48 5 5 7 -5 4 -22 -10 -67
39 -17 54 55 7 36 8 37 12 12 l3 -28 20 25 c10 13 22 45 25 70 7 48 0 62 -12
24z"/>
<path d="M897 1064 c-4 -4 -7 -14 -7 -23 0 -11 3 -12 11 -4 6 6 10 16 7 23 -2
6 -7 8 -11 4z"/>
<path d="M3179 1001 c-25 -26 -29 -37 -29 -86 0 -48 3 -56 18 -53 13 3 17 14
18 54 1 28 9 65 18 82 21 40 13 40 -25 3z"/>
<path d="M3535 996 c-4 -18 -5 -44 -2 -57 3 -19 5 -18 6 8 0 17 5 43 11 57 6
16 6 26 0 26 -5 0 -12 -15 -15 -34z"/>
<path d="M891 1004 c0 -11 3 -14 6 -6 3 7 2 16 -1 19 -3 4 -6 -2 -5 -13z"/>
<path d="M2558 1003 c7 -3 16 -2 19 1 4 3 -2 6 -13 5 -11 0 -14 -3 -6 -6z"/>
<path d="M2868 900 c-17 -129 -20 -207 -10 -214 14 -8 24 95 20 194 l-3 75 -7
-55z"/>
<path d="M3110 925 c0 -8 -6 -15 -12 -15 -10 0 -10 -2 0 -8 7 -5 10 -16 7 -24
-4 -9 0 -18 9 -21 12 -5 15 2 14 38 0 25 -4 45 -9 45 -5 0 -9 -7 -9 -15z"/>
<path d="M3341 924 c0 -11 3 -14 6 -6 3 7 2 16 -1 19 -3 4 -6 -2 -5 -13z"/>
<path d="M3290 915 c-10 -12 -9 -22 3 -52 l15 -38 12 27 c13 27 7 78 -9 78 -5
0 -14 -7 -21 -15z"/>
<path d="M3401 848 c-16 -45 -14 -53 9 -33 21 19 27 50 11 59 -5 3 -14 -8 -20
-26z"/>
<path d="M3090 840 c0 -5 5 -10 10 -10 6 0 10 5 10 10 0 6 -4 10 -10 10 -5 0
-10 -4 -10 -10z"/>
<path d="M3348 828 c-23 -29 -24 -61 -1 -56 9 2 17 12 18 23 2 11 6 28 10 38
10 24 -7 21 -27 -5z"/>
<path d="M3530 834 c0 -9 5 -14 12 -12 18 6 21 28 4 28 -9 0 -16 -7 -16 -16z"/>
<path d="M3450 833 c0 -5 5 -15 10 -23 8 -12 10 -11 10 8 0 12 -4 22 -10 22
-5 0 -10 -3 -10 -7z"/>
<path d="M3446 765 c-3 -8 -1 -15 4 -15 6 0 10 7 10 15 0 8 -2 15 -4 15 -2 0
-6 -7 -10 -15z"/>
<path d="M3398 763 c7 -3 16 -2 19 1 4 3 -2 6 -13 5 -11 0 -14 -3 -6 -6z"/>
<path d="M780 678 c0 -36 4 -35 14 5 4 16 2 27 -4 27 -5 0 -10 -14 -10 -32z"/>
<path d="M751 685 c-1 -11 -4 -31 -7 -45 -5 -22 -4 -23 6 -7 6 10 9 30 7 45
-3 18 -5 20 -6 7z"/>
<path d="M2270 670 c0 -5 7 -10 16 -10 8 0 12 5 9 10 -3 6 -10 10 -16 10 -5 0
-9 -4 -9 -10z"/>
<path d="M2306 645 c-3 -8 -15 -15 -26 -15 -24 0 -27 -15 -4 -24 8 -3 12 -10
9 -16 -3 -5 -2 -10 4 -10 5 0 11 4 13 10 2 6 16 6 41 -1 21 -5 47 -7 58 -4 20
7 20 6 2 -14 -11 -14 -29 -21 -52 -21 l-35 0 21 -21 c17 -18 33 -22 85 -21 52
1 59 -1 41 -10 -33 -16 -28 -26 13 -26 26 0 34 4 30 14 -6 17 17 18 46 3 14
-8 23 -8 31 0 8 8 6 11 -6 11 -9 0 -17 6 -17 13 -1 6 -46 35 -102 62 -55 28
-106 58 -112 68 -13 21 -32 22 -40 2z"/>
<path d="M3268 553 c7 -3 16 -2 19 1 4 3 -2 6 -13 5 -11 0 -14 -3 -6 -6z"/>
<path d="M3378 553 c7 -3 16 -2 19 1 4 3 -2 6 -13 5 -11 0 -14 -3 -6 -6z"/>
<path d="M2252 508 c3 -7 19 -14 38 -16 30 -3 31 -2 17 12 -19 19 -61 22 -55
4z"/>
<path d="M3186 442 c2 -37 0 -50 -5 -37 -5 11 -7 23 -4 28 7 11 -12 8 -25 -5
-14 -14 13 -51 61 -83 29 -20 33 -21 45 -6 7 9 11 10 7 4 -3 -7 -1 -13 4 -13
6 0 11 4 11 8 0 5 12 9 28 10 40 4 96 10 102 12 3 1 14 1 24 0 29 -3 53 -40
60 -92 4 -27 11 -48 17 -48 5 0 7 -11 3 -25 -5 -19 -2 -25 10 -25 12 0 16 -10
16 -40 0 -44 5 -48 29 -25 9 9 39 37 66 63 28 26 57 61 65 77 8 17 21 34 27
38 7 4 13 14 13 21 0 8 9 16 21 19 24 7 20 33 -5 29 -9 -2 -16 4 -16 13 0 18
-21 20 -38 3 -9 -9 -12 -7 -12 10 0 12 -4 22 -10 22 -5 0 -10 -4 -10 -10 0 -5
-7 -10 -15 -10 -8 0 -14 3 -14 8 3 19 -3 21 -25 7 -23 -15 -24 -15 -19 3 7 29
-13 36 -31 10 -13 -18 -16 -19 -16 -5 0 20 -20 18 -37 -3 -9 -10 -12 -11 -13
-2 0 6 -6 12 -14 12 -8 0 -16 -6 -19 -12 -3 -10 -7 -10 -18 -2 -12 10 -66 11
-94 3 -5 -2 -20 2 -32 9 -18 10 -28 10 -44 1 -18 -9 -24 -8 -33 7 -6 11 -13
30 -16 43 -3 13 -15 27 -26 32 -20 7 -21 5 -18 -49z"/>
<path d="M3265 470 c3 -5 8 -10 11 -10 2 0 4 5 4 10 0 6 -5 10 -11 10 -5 0 -7
-4 -4 -10z"/>
<path d="M1978 443 c7 -3 16 -2 19 1 4 3 -2 6 -13 5 -11 0 -14 -3 -6 -6z"/>
<path d="M2552 431 c-11 -7 -11 -9 2 -14 19 -7 46 1 46 14 0 11 -31 11 -48 0z"/>
<path d="M2480 402 c0 -7 -9 -12 -20 -12 -11 0 -20 -4 -20 -10 0 -17 37 -11
44 6 4 9 4 19 1 22 -3 3 -5 0 -5 -6z"/>
<path d="M2528 403 c7 -3 16 -2 19 1 4 3 -2 6 -13 5 -11 0 -14 -3 -6 -6z"/>
<path d="M2170 260 l0 -70 -34 0 c-33 0 -33 -1 -40 -52 -3 -29 -6 -72 -6 -95
0 -35 3 -43 19 -43 20 0 31 39 31 112 0 40 8 68 20 68 4 0 6 -10 4 -22 -2 -13
-5 -49 -8 -80 l-4 -57 21 20 c17 15 25 40 33 102 l11 82 2 -77 c0 -43 5 -78
10 -78 6 0 7 -16 4 -35 -4 -23 -2 -35 6 -35 8 0 11 44 11 144 l0 144 -40 21
-40 21 0 -70z"/>
<path d="M3274 318 c-8 -12 35 -53 45 -42 3 4 0 9 -6 11 -19 7 -16 23 5 24 14
0 14 2 -3 9 -28 12 -33 12 -41 -2z"/>
<path d="M2270 140 c0 -131 1 -140 19 -140 25 0 36 72 26 181 -6 63 -11 81
-26 90 -18 9 -19 4 -19 -131z"/>
<path d="M2337 243 c-4 -3 -7 -60 -7 -125 0 -108 2 -118 18 -118 17 0 20 12
26 116 3 64 4 120 1 125 -7 11 -29 12 -38 2z"/>
<path d="M2397 173 c-3 -32 -6 -84 -7 -115 -1 -51 1 -58 18 -58 26 0 32 25 32
131 0 70 -3 88 -16 93 -9 3 -17 6 -19 6 -1 0 -5 -26 -8 -57z"/>
<path d="M2462 143 c1 -51 3 -62 5 -33 3 32 7 40 14 30 7 -11 9 -2 7 29 -2 25
-9 46 -15 49 -10 3 -13 -16 -11 -75z"/>
<path d="M2527 204 c-4 -4 -7 -52 -7 -106 0 -80 3 -98 15 -98 20 0 26 32 23
124 -3 73 -13 98 -31 80z"/>
<path d="M2580 96 c0 -90 1 -96 20 -96 20 0 21 5 18 92 -3 79 -6 93 -20 96
-16 3 -18 -6 -18 -92z"/>
<path d="M2640 90 c0 -83 1 -90 20 -90 19 0 20 7 20 90 0 83 -1 90 -20 90 -19
0 -20 -7 -20 -90z"/>
<path d="M2694 155 c3 -9 6 -48 6 -86 0 -55 3 -69 15 -69 13 0 15 14 13 82 -3
72 -5 83 -22 86 -14 3 -17 0 -12 -13z"/>
<path d="M2740 85 c0 -68 13 -100 30 -75 6 10 10 11 10 3 0 -7 7 -13 15 -13
19 0 19 4 -1 42 -12 24 -18 28 -25 17 -6 -10 -9 -3 -9 21 0 19 -5 42 -10 50
-7 11 -10 -3 -10 -45z"/>
<path d="M2212 20 c0 -14 2 -19 5 -12 2 6 2 18 0 25 -3 6 -5 1 -5 -13z"/>
</g>
</svg>
